
        <svg xmlns="http://www.w3.org/2000/svg" xmlns:xlink="http://www.w3.org/1999/xlink" version="1.1" width="3162.4930985733267" height="3145.764830193001" viewBox="0 0 3162.4930985733267 3145.764830193001">
			
			<g transform="scale(8.124654928666347) translate(10, 10)">
				<defs id="SvgjsDefs1483"/><g id="SvgjsG1484" featureKey="rootContainer" transform="matrix(3.688776074093139,0,0,3.688776074093139,-0.000022866291505437282,0.07716318015784832)" fill="#000"><path xmlns="http://www.w3.org/2000/svg" d="M100.1 49.8c0 1.7-1.4 3.4-1.6 5.1s.9 3.6.5 5.3-2.1 3-2.6 4.6.1 3.7-.6 5.3-2.7 2.5-3.6 4-.7 3.7-1.7 5.1-3.2 1.9-4.3 3.2-1.4 3.5-2.7 4.6-3.5 1.2-4.9 2.2-2.1 3.1-3.6 4-3.6.4-5.2 1.1-2.7 2.6-4.3 3.1-3.6-.3-5.3 0-3.2 2-4.9 2.1-3.5-1.1-5.2-1.1-3.5 1.3-5.2 1.1-3.2-1.8-4.9-2.1-3.7.5-5.3 0-2.8-2.4-4.3-3.1-3.9-.3-5.4-1.2-2.2-2.9-3.6-4-3.6-1-4.9-2.2-1.5-3.3-2.7-4.6-3.3-1.8-4.3-3.2-.8-3.6-1.7-5.1-2.9-2.4-3.6-4 0-3.7-.6-5.3-2.3-2.9-2.6-4.6.7-3.6.5-5.3-1.5-3.3-1.5-5 1.4-3.4 1.6-5.1-.9-3.7-.5-5.3 2.1-3 2.6-4.6-.1-3.7.6-5.3 2.7-2.5 3.6-4 .7-3.7 1.7-5.1 3.2-1.9 4.3-3.2 1.4-3.5 2.7-4.6 3.5-1.2 4.9-2.2 2.1-3.1 3.6-4 3.6-.4 5.2-1.1 2.7-2.6 4.3-3.1 3.6.3 5.3 0 3.2-2 4.9-2.2 3.5 1.1 5.2 1.1S53.6-.2 55.3 0s3.2 1.8 4.9 2.1 3.7-.5 5.3 0 2.8 2.4 4.3 3.1 3.7.3 5.2 1.1 2.2 2.9 3.6 4 3.6 1 4.9 2.2 1.5 3.3 2.7 4.6 3.3 1.8 4.3 3.2.8 3.6 1.7 5.1 2.9 2.4 3.6 4 0 3.7.6 5.3 2.3 2.9 2.6 4.6-.7 3.6-.5 5.3 1.6 3.4 1.6 5.2z"/></g><g id="SvgjsG1485" featureKey="symbolFeature-0" transform="matrix(1.1139962893056237,0,0,1.1139962893056237,134.94099038074455,47.71263650680126)" fill="#ffffff"><g xmlns="http://www.w3.org/2000/svg"><polygon points="15.825,23.585 10.825,23.585 10.825,73.584 43.825,73.584 15.825,68.579  "/></g><polygon xmlns="http://www.w3.org/2000/svg" points="23.826,63.574 23.826,21.944 17.825,20.943 17.825,66.885 40.79,71.384 "/><polygon xmlns="http://www.w3.org/2000/svg" points="25.652,62.399 44,70.747 44,24.76 25.652,16.416 "/><g xmlns="http://www.w3.org/2000/svg"><polygon points="74.176,23.585 79.176,23.585 79.176,73.584 46.175,73.584 74.176,68.579  "/></g><polygon xmlns="http://www.w3.org/2000/svg" points="66.174,63.574 66.174,21.944 72.176,20.943 72.176,66.885 49.21,71.384 "/><polygon xmlns="http://www.w3.org/2000/svg" points="64.349,62.399 46,70.747 46,24.76 64.349,16.416 "/></g><g id="SvgjsG1486" featureKey="nameFeature-0" transform="matrix(4.460585766547467,0,0,4.460585766547467,92.00000106348652,99.68460650628771)" fill="#ffffff"><path d="M9.28 33.44 l0.16 -22.16 l3.84 0 l-0.24 28.88 l-5.96 0 l-3.24 -22.36 l0 22.36 l-3.84 0 l0 -28.88 l6.2 0 z M21.561 40.04 l-5 0 l0 -28.52 l5 0 c3.4 0 6.12 2.76 6.12 6.16 l0 16.2 c0 1.64 -0.64 3.2 -1.8 4.36 s-2.68 1.8 -4.32 1.8 z M20.361 15.36 l0 20.84 l1.2 0 c0.6 0 1.2 -0.24 1.64 -0.68 s0.68 -1 0.68 -1.64 l0 -16.2 c0 -1.28 -1.04 -2.32 -2.32 -2.32 l-1.2 0 z M34.762 34 l0 5.96 l-3.8 0 l0 -28.52 l5.92 0 c2.64 0 4.76 2.16 4.76 4.8 l0 13 c0 2.64 -2.12 4.76 -4.76 4.76 l-2.12 0 z M34.762 15.239999999999998 l0 14.96 l2.12 0 c0.56 0 0.96 -0.4 0.96 -0.96 l0 -13 c0 -0.56 -0.4 -1 -0.96 -1 l-2.12 0 z"/></g><g id="SvgjsG1487" featureKey="sloganFeature-0" transform="matrix(0.6901421696975932,0,0,0.6901421696975932,122.00000008227136,287.1090106129896)" fill="#ffffff"><path d="M4.64 16.72 l0.08 -11.08 l1.92 0 l-0.12 14.44 l-2.98 0 l-1.62 -11.18 l0 11.18 l-1.92 0 l0 -14.44 l3.1 0 z M12.048000000000002 20.02 c-1.5 0 -2.7 -1.22 -2.7 -2.7 l0 -8.98 c0 -1.48 1.2 -2.68 2.7 -2.68 c1.48 0 2.68 1.2 2.68 2.68 l0 8.98 c0 1.48 -1.2 2.7 -2.68 2.7 z M12.048000000000002 7.5600000000000005 c-0.44 0 -0.78 0.36 -0.78 0.78 l0 8.98 c0 0.44 0.34 0.78 0.78 0.78 c0.42 0 0.78 -0.34 0.78 -0.78 l0 -8.98 c0 -0.42 -0.36 -0.78 -0.78 -0.78 z M23.896 5.68 l0 1.92 l-2.38 0 l0 12.42 l-1.92 0 l0 -12.42 l-2.62 0 l0 -1.92 l6.92 0 z M30.424 20 l-0.72 -4.94 l-2.02 0 l-0.66 4.94 l-1.92 0 l2.16 -14.3 l2.58 0 l2.5 14.3 l-1.92 0 z M27.944 13.16 l1.48 0 l-0.76 -5.2 z M39.952 5.68 l0 1.92 l-2.38 0 l0 12.42 l-1.92 0 l0 -12.42 l-2.62 0 l0 -1.92 l6.92 0 z M46.919999999999995 19.92 l-2.1 -7.88 l-0.3 0.5 l0 7.44 l-1.86 0 l0 -14.26 l1.86 0 l0 3.1 l1.24 -3.1 l2.3 0 l-1.9 4.12 l2.7 10.08 l-1.94 0 z M53.467999999999996 5.68 l0 14.24 l-1.9 0 l0 -14.24 l1.9 0 z M64.384 20.02 l-2.5 0 l0 -14.26 l2.5 0 c1.7 0 3.06 1.38 3.06 3.08 l0 8.1 c0 0.82 -0.32 1.6 -0.9 2.18 s-1.34 0.9 -2.16 0.9 z M63.784 7.68 l0 10.42 l0.6 0 c0.3 0 0.6 -0.12 0.82 -0.34 s0.34 -0.5 0.34 -0.82 l0 -8.1 c0 -0.64 -0.52 -1.16 -1.16 -1.16 l-0.6 0 z M72.032 18.12 l2.76 0 l0 1.88 l-4.64 0 l0 -14.36 l1.88 0 l0 12.48 z M82.5 20 l-0.72 -4.94 l-2.02 0 l-0.66 4.94 l-1.92 0 l2.16 -14.3 l2.58 0 l2.5 14.3 l-1.92 0 z M80.02000000000001 13.16 l1.48 0 l-0.76 -5.2 z M94.73600000000002 17 l0 2.98 l-1.9 0 l0 -14.26 l2.96 0 c1.32 0 2.38 1.08 2.38 2.4 l0 6.5 c0 1.32 -1.06 2.38 -2.38 2.38 l-1.06 0 z M94.73600000000002 7.619999999999999 l0 7.48 l1.06 0 c0.28 0 0.48 -0.2 0.48 -0.48 l0 -6.5 c0 -0.28 -0.2 -0.5 -0.48 -0.5 l-1.06 0 z M103.58400000000002 20.02 c-1.5 0 -2.7 -1.22 -2.7 -2.7 l0 -8.98 c0 -1.48 1.2 -2.68 2.7 -2.68 c1.48 0 2.68 1.2 2.68 2.68 l0 8.98 c0 1.48 -1.2 2.7 -2.68 2.7 z M103.58400000000002 7.5600000000000005 c-0.44 0 -0.78 0.36 -0.78 0.78 l0 8.98 c0 0.44 0.34 0.78 0.78 0.78 c0.42 0 0.78 -0.34 0.78 -0.78 l0 -8.98 c0 -0.42 -0.36 -0.78 -0.78 -0.78 z M111.47200000000001 20.02 l-2.5 0 l0 -14.26 l2.5 0 c1.7 0 3.06 1.38 3.06 3.08 l0 8.1 c0 0.82 -0.32 1.6 -0.9 2.18 s-1.34 0.9 -2.16 0.9 z M110.87200000000001 7.68 l0 10.42 l0.6 0 c0.3 0 0.6 -0.12 0.82 -0.34 s0.34 -0.5 0.34 -0.82 l0 -8.1 c0 -0.64 -0.52 -1.16 -1.16 -1.16 l-0.6 0 z M119.98 20.12 c-1.52 0 -2.74 -1.24 -2.74 -2.74 l0 -2.18 l1.94 0 l0 2.18 c0 0.44 0.36 0.8 0.8 0.8 s0.78 -0.36 0.78 -0.8 l0 -1.9 l-3.52 -4.86 l0 -2.48 c0 -1.52 1.22 -2.76 2.74 -2.76 c1.5 0 2.72 1.24 2.72 2.76 l0 2.16 l-1.94 0 l0 -2.16 c0 -0.46 -0.34 -0.8 -0.78 -0.8 s-0.8 0.34 -0.8 0.8 l0 1.82 l3.52 4.86 l0 2.56 c0 1.5 -1.22 2.74 -2.72 2.74 z M131.708 5.68 l0 1.92 l-2.38 0 l0 12.42 l-1.92 0 l0 -12.42 l-2.62 0 l0 -1.92 l6.92 0 z M138.236 20 l-0.72 -4.94 l-2.02 0 l-0.66 4.94 l-1.92 0 l2.16 -14.3 l2.58 0 l2.5 14.3 l-1.92 0 z M135.756 13.16 l1.48 0 l-0.76 -5.2 z M148.88400000000001 5.720000000000001 l1.92 0 l-1.86 14.28 l-1.98 0 l-1 -7.16 l-0.94 7.16 l-1.98 0 l-2 -14.28 l1.92 0 l1.04 7.36 l0.96 -7.36 l1.92 0 l1.04 7.36 z M156.212 20.02 c1.48 0 2.68 -1.22 2.68 -2.7 l0 -8.98 c0 -1.48 -1.2 -2.68 -2.68 -2.68 c-1.5 0 -2.7 1.2 -2.7 2.68 l0 8.98 c0 1.48 1.2 2.7 2.7 2.7 z M156.212 7.5600000000000005 c0.42 0 0.78 0.36 0.78 0.78 l0 8.98 c0 0.44 -0.36 0.78 -0.78 0.78 c-0.44 0 -0.78 -0.34 -0.78 -0.78 l0 -8.98 c0 -0.42 0.34 -0.78 0.78 -0.78 z M157.132 4.58 l-2.24 0 l1.38 -1.84 l2.24 0 z M169.12 5.720000000000001 l1.92 0 l-1.86 14.28 l-1.98 0 l-1 -7.16 l-0.94 7.16 l-1.98 0 l-2 -14.28 l1.92 0 l1.04 7.36 l0.96 -7.36 l1.92 0 l1.04 7.36 z M178.00799999999998 19.92 l-2.1 -7.88 l-0.3 0.5 l0 7.44 l-1.86 0 l0 -14.26 l1.86 0 l0 3.1 l1.24 -3.1 l2.3 0 l-1.9 4.12 l2.7 10.08 l-1.94 0 z M184.556 5.68 l0 14.24 l-1.9 0 l0 -14.24 l1.9 0 z"/></g>
			</g>
		</svg>
	